<?xml version="1.0" encoding="UTF-8"?>
<svg xmlns="http://www.w3.org/2000/svg" width="128" height="128" viewBox="0 0 128 128">
  <defs>
    <linearGradient id="folder" x1="0" y1="0" x2="1" y2="1">
      <stop offset="0" stop-color="#7c9cff"/>
      <stop offset="1" stop-color="#4f46e5"/>
    </linearGradient>
    <linearGradient id="disc" x1="0" y1="0" x2="1" y2="1">
      <stop offset="0" stop-color="#ffffff" stop-opacity=".98"/>
      <stop offset="1" stop-color="#dbe4ff" stop-opacity=".92"/>
    </linearGradient>
  </defs>
  <path d="M12 31c0-7 5-12 12-12h28l11 12h41c7 0 12 5 12 12v60c0 7-5 12-12 12H24c-7 0-12-5-12-12z" fill="url(#folder)"/>
  <path d="M12 47h104v56c0 7-5 12-12 12H24c-7 0-12-5-12-12z" fill="#5b67e8" opacity=".72"/>
  <circle cx="66" cy="77" r="29" fill="url(#disc)"/>
  <path d="M66 55a22 22 0 1 1-17 8" fill="none" stroke="#4f46e5" stroke-width="8" stroke-linecap="round"/>
  <path d="M43 57l14 1-7 12z" fill="#4f46e5"/>
  <circle cx="66" cy="77" r="7" fill="#7c9cff"/>
</svg>
